# Blender v2.92.0 OBJ File: 'Tiles.blend'
# www.blender.org
o key_Cylinder.002
v -0.698913 4.426288 -0.134834
v 0.241960 4.426288 -0.134834
v -0.698913 4.348624 -0.050078
v 0.241960 4.348624 -0.050078
v -0.698913 4.353638 0.064770
v 0.241960 4.353638 0.064770
v -0.698913 4.438394 0.142435
v 0.241960 4.438394 0.142435
v -0.698913 4.553243 0.137420
v 0.241960 4.553243 0.137420
v -0.698913 4.630907 0.052664
v 0.241960 4.630907 0.052664
v -0.698913 4.625893 -0.062184
v 0.241960 4.625893 -0.062184
v -0.698913 4.541137 -0.139849
v 0.241960 4.541137 -0.139849
v -0.571198 4.426288 -0.134834
v -0.571198 4.348624 -0.050078
v -0.571198 4.353638 0.064770
v -0.571198 4.438394 0.142435
v -0.571198 4.553243 0.137420
v -0.571198 4.630907 0.052664
v -0.571198 4.625893 -0.062184
v -0.571198 4.541137 -0.139849
v -0.423892 4.426288 -0.134834
v -0.423892 4.348624 -0.050078
v -0.423892 4.353638 0.064770
v -0.423892 4.438394 0.142435
v -0.423892 4.553243 0.137420
v -0.423892 4.630907 0.052664
v -0.423892 4.625893 -0.062184
v -0.423892 4.541137 -0.139849
v -0.286393 4.426288 -0.134834
v -0.286393 4.348624 -0.050078
v -0.286393 4.353638 0.064770
v -0.286393 4.438394 0.142435
v -0.286393 4.553243 0.137420
v -0.286393 4.630907 0.052664
v -0.286393 4.625893 -0.062184
v -0.286393 4.541137 -0.139849
v -0.698913 4.147546 -0.041299
v -0.698913 4.152561 0.073549
v -0.571199 4.147546 -0.041299
v -0.571199 4.152561 0.073549
v -0.423892 4.192117 -0.043245
v -0.423892 4.197132 0.071603
v -0.286393 4.192117 -0.043245
v -0.286393 4.197132 0.071603
v 0.289895 4.314575 0.156806
v 0.289895 4.693575 0.156806
v 0.294963 4.318125 -0.153640
v 0.294963 4.690267 -0.153640
v 0.611970 4.319494 0.156806
v 0.611156 4.687990 0.156806
v 0.608125 4.323488 -0.153640
v 0.607237 4.684175 -0.153640
v 0.159911 4.426288 -0.134834
v 0.159911 4.348624 -0.050078
v 0.159911 4.353638 0.064770
v 0.159911 4.438394 0.142435
v 0.159911 4.553243 0.137420
v 0.159911 4.630907 0.052664
v 0.159911 4.625893 -0.062184
v 0.159911 4.541137 -0.139849
v 0.444169 4.263867 -0.153640
v 0.444169 4.755823 -0.153640
v 0.444169 4.258474 0.156806
v 0.444169 4.761359 0.156806
v 0.289895 4.502743 0.156806
v 0.294963 4.502743 -0.153640
v 0.681157 4.502743 -0.153640
v 0.686630 4.502743 0.156806
v 0.233837 4.502743 0.156806
v 0.233837 4.730176 0.156806
v 0.747162 4.502743 0.156806
v 0.654501 4.275310 0.156806
v 0.444169 4.198825 0.156806
v 0.444169 4.822589 0.156806
v 0.233837 4.275310 0.156806
v 0.654501 4.730176 0.156806
v 0.289895 4.314575 0.125979
v 0.289895 4.693575 0.125979
v 0.611970 4.319494 0.125979
v 0.611156 4.687990 0.125979
v 0.444169 4.258474 0.125979
v 0.444169 4.761359 0.125979
v 0.289895 4.502743 0.125979
v 0.686630 4.502743 0.125979
v 0.233837 4.502743 -0.153640
v 0.233837 4.275310 -0.153640
v 0.444169 4.198825 -0.153640
v 0.444169 4.822589 -0.153640
v 0.654501 4.730176 -0.153640
v 0.747162 4.502743 -0.153640
v 0.654501 4.275310 -0.153640
v 0.233837 4.730176 -0.153640
v 0.294963 4.318125 -0.109863
v 0.294963 4.690267 -0.109863
v 0.608125 4.323488 -0.109863
v 0.607237 4.684175 -0.109863
v 0.444169 4.263867 -0.109863
v 0.444169 4.755823 -0.109863
v 0.294963 4.502743 -0.109863
v 0.681157 4.502743 -0.109863
vt 0.158203 0.556641
vt 0.158203 0.556641
vt 0.158203 0.556641
vt 0.158203 0.556641
vt 0.158203 0.556641
vt 0.158203 0.556641
vt 0.158203 0.556641
vt 0.158203 0.556641
vt 0.158203 0.556641
vt 0.158203 0.556641
vt 0.158203 0.556641
vt 0.158203 0.556641
vt 0.158203 0.556641
vt 0.158203 0.556641
vt 0.158203 0.556641
vt 0.158203 0.556641
vt 0.158203 0.556641
vt 0.158203 0.556641
vt 0.158203 0.556641
vt 0.158203 0.556641
vt 0.158203 0.556641
vt 0.158203 0.556641
vt 0.158203 0.556641
vt 0.158203 0.556641
vt 0.158203 0.556641
vt 0.158203 0.556641
vt 0.158203 0.556641
vt 0.158203 0.556641
vt 0.158203 0.556641
vt 0.158203 0.556641
vt 0.158203 0.556641
vt 0.158203 0.556641
vt 0.158203 0.556641
vt 0.158203 0.556641
vt 0.158203 0.556641
vt 0.158203 0.556641
vt 0.158203 0.556641
vt 0.158203 0.556641
vt 0.158203 0.556641
vt 0.158203 0.556641
vt 0.158203 0.556641
vt 0.158203 0.556641
vt 0.158203 0.556641
vt 0.158203 0.556641
vt 0.158203 0.556641
vt 0.158203 0.556641
vt 0.158203 0.556641
vt 0.158203 0.556641
vt 0.158203 0.556641
vt 0.158203 0.556641
vt 0.158203 0.556641
vt 0.158203 0.556641
vt 0.158203 0.556641
vt 0.158203 0.556641
vt 0.158203 0.556641
vt 0.158203 0.556641
vt 0.158203 0.556641
vt 0.158203 0.556641
vt 0.158203 0.556641
vt 0.158203 0.556641
vt 0.158203 0.556641
vt 0.158203 0.556641
vt 0.158203 0.556641
vt 0.158203 0.556641
vt 0.158203 0.556641
vt 0.158203 0.556641
vt 0.158203 0.556641
vt 0.158203 0.556641
vt 0.158203 0.556641
vt 0.158203 0.556641
vt 0.158203 0.556641
vt 0.158203 0.556641
vt 0.158203 0.556641
vt 0.158203 0.556641
vt 0.158203 0.556641
vt 0.158203 0.556641
vt 0.158203 0.556641
vt 0.158203 0.556641
vt 0.158203 0.556641
vt 0.158203 0.556641
vt 0.158203 0.556641
vt 0.158203 0.556641
vt 0.158203 0.556641
vt 0.158203 0.556641
vt 0.158203 0.556641
vt 0.158203 0.556641
vt 0.158203 0.556641
vt 0.158203 0.556641
vt 0.158203 0.556641
vt 0.158203 0.556641
vt 0.158203 0.556641
vt 0.158203 0.556641
vt 0.158203 0.556641
vt 0.158203 0.556641
vt 0.158203 0.556641
vt 0.158203 0.556641
vt 0.158203 0.556641
vt 0.158203 0.556641
vt 0.158203 0.556641
vt 0.158203 0.556641
vt 0.158203 0.556641
vt 0.158203 0.556641
vt 0.158203 0.556641
vt 0.158203 0.556641
vn 0.0000 -0.7373 -0.6756
vn 0.0000 -0.9990 0.0436
vn 0.0000 -0.6756 0.7373
vn 0.0000 0.0436 0.9990
vn 0.0000 0.7373 0.6756
vn 0.0000 0.9990 -0.0436
vn 1.0000 0.0000 0.0000
vn 0.0000 0.6756 -0.7373
vn 0.0000 -0.0436 -0.9990
vn -1.0000 -0.0000 0.0000
vn 0.9261 0.3773 0.0000
vn 0.4023 -0.9155 0.0000
vn 0.3417 -0.9398 0.0000
vn -0.4023 0.9155 0.0000
vn 0.4023 0.9155 0.0000
vn -0.3417 -0.9398 0.0000
vn 0.9261 -0.3773 0.0000
vn 0.0000 0.0000 1.0000
vn -0.9261 0.3773 0.0000
vn 0.3417 0.9398 0.0000
vn -0.3417 0.9398 0.0000
vn -0.9261 -0.3773 0.0000
vn -0.4023 -0.9155 0.0000
vn 0.0000 0.0000 -1.0000
s off
f 2/1/1 58/2/1 57/3/1
f 4/4/2 59/5/2 58/2/2
f 6/6/3 60/7/3 59/5/3
f 8/8/4 61/9/4 60/7/4
f 10/10/5 62/11/5 61/9/5
f 12/12/6 63/13/6 62/11/6
f 6/6/7 2/1/7 14/14/7
f 14/14/8 64/15/8 63/13/8
f 16/16/9 57/3/9 64/15/9
f 15/17/10 3/18/10 7/19/10
f 24/20/9 1/21/9 15/17/9
f 23/22/8 15/17/8 13/23/8
f 22/24/6 13/23/6 11/25/6
f 21/26/5 11/25/5 9/27/5
f 7/19/4 21/26/4 9/27/4
f 19/28/3 7/19/3 5/29/3
f 5/29/4 44/30/4 19/28/4
f 17/31/1 3/18/1 1/21/1
f 32/32/9 17/31/9 24/20/9
f 31/33/8 24/20/8 23/22/8
f 30/34/6 23/22/6 22/24/6
f 21/26/5 30/34/5 22/24/5
f 28/35/4 21/26/4 20/36/4
f 27/37/3 20/36/3 19/28/3
f 26/38/2 19/28/2 18/39/2
f 17/31/1 26/38/1 18/39/1
f 40/40/9 25/41/9 32/32/9
f 39/42/8 32/32/8 31/33/8
f 38/43/6 31/33/6 30/34/6
f 29/44/5 38/43/5 30/34/5
f 36/45/4 29/44/4 28/35/4
f 35/46/3 28/35/3 27/37/3
f 35/46/7 47/47/7 34/48/7
f 25/41/1 34/48/1 26/38/1
f 43/49/2 42/50/2 41/51/2
f 3/18/10 42/50/10 5/29/10
f 19/28/7 43/49/7 18/39/7
f 18/39/9 41/51/9 3/18/9
f 47/47/2 46/52/2 45/53/2
f 35/46/4 46/52/4 48/54/4
f 26/38/10 46/52/10 27/37/10
f 34/48/9 45/53/9 26/38/9
f 74/55/10 89/56/10 73/57/10
f 52/58/7 103/59/7 70/60/7
f 93/61/11 75/62/11 94/63/11
f 50/64/12 86/65/12 68/66/12
f 95/67/13 77/68/13 91/69/13
f 96/70/14 78/71/14 92/72/14
f 64/15/9 33/73/9 40/40/9
f 39/42/8 64/15/8 40/40/8
f 62/11/6 39/42/6 38/43/6
f 61/9/5 38/43/5 37/74/5
f 60/7/4 37/74/4 36/45/4
f 59/5/3 36/45/3 35/46/3
f 58/2/2 35/46/2 34/48/2
f 57/3/1 34/48/1 33/73/1
f 92/72/15 80/75/15 93/61/15
f 91/69/16 79/76/16 90/77/16
f 94/63/17 76/78/17 95/67/17
f 73/57/10 90/77/10 79/76/10
f 50/64/18 73/57/18 69/79/18
f 53/80/18 75/62/18 72/81/18
f 53/80/18 77/68/18 76/78/18
f 50/64/18 78/71/18 74/55/18
f 49/82/18 77/68/18 67/83/18
f 68/66/18 80/75/18 78/71/18
f 49/82/18 73/57/18 79/76/18
f 72/81/18 80/75/18 54/84/18
f 85/85/18 83/86/18 87/87/18
f 72/81/19 83/86/19 53/80/19
f 49/82/7 87/87/7 69/79/7
f 67/83/20 81/88/20 49/82/20
f 53/80/21 85/85/21 67/83/21
f 69/79/7 82/89/7 50/64/7
f 54/84/22 88/90/22 72/81/22
f 68/66/23 84/91/23 54/84/23
f 51/92/24 89/56/24 70/60/24
f 51/92/24 91/69/24 90/77/24
f 66/93/24 93/61/24 56/94/24
f 55/95/24 94/63/24 95/67/24
f 55/95/24 91/69/24 65/96/24
f 52/58/24 92/72/24 66/93/24
f 52/58/24 89/56/24 96/70/24
f 71/97/24 93/61/24 94/63/24
f 99/98/24 101/99/24 103/59/24
f 65/96/21 99/98/21 55/95/21
f 56/94/23 102/100/23 66/93/23
f 70/60/7 97/101/7 51/92/7
f 71/97/22 100/102/22 56/94/22
f 66/93/12 98/103/12 52/58/12
f 55/95/19 104/104/19 71/97/19
f 51/92/20 101/99/20 65/96/20
f 2/1/1 4/4/1 58/2/1
f 4/4/2 6/6/2 59/5/2
f 6/6/3 8/8/3 60/7/3
f 8/8/4 10/10/4 61/9/4
f 10/10/5 12/12/5 62/11/5
f 12/12/6 14/14/6 63/13/6
f 6/6/7 4/4/7 2/1/7
f 2/1/7 16/16/7 14/14/7
f 14/14/7 12/12/7 6/6/7
f 12/12/7 10/10/7 6/6/7
f 10/10/7 8/8/7 6/6/7
f 14/14/8 16/16/8 64/15/8
f 16/16/9 2/1/9 57/3/9
f 15/17/10 1/21/10 3/18/10
f 3/18/10 5/29/10 7/19/10
f 7/19/10 9/27/10 11/25/10
f 11/25/10 13/23/10 7/19/10
f 13/23/10 15/17/10 7/19/10
f 24/20/9 17/31/9 1/21/9
f 23/22/8 24/20/8 15/17/8
f 22/24/6 23/22/6 13/23/6
f 21/26/5 22/24/5 11/25/5
f 7/19/4 20/36/4 21/26/4
f 19/28/3 20/36/3 7/19/3
f 5/29/4 42/50/4 44/30/4
f 17/31/1 18/39/1 3/18/1
f 32/32/9 25/41/9 17/31/9
f 31/33/8 32/32/8 24/20/8
f 30/34/6 31/33/6 23/22/6
f 21/26/5 29/44/5 30/34/5
f 28/35/4 29/44/4 21/26/4
f 27/37/3 28/35/3 20/36/3
f 26/38/2 27/37/2 19/28/2
f 17/31/1 25/41/1 26/38/1
f 40/40/9 33/73/9 25/41/9
f 39/42/8 40/40/8 32/32/8
f 38/43/6 39/42/6 31/33/6
f 29/44/5 37/74/5 38/43/5
f 36/45/4 37/74/4 29/44/4
f 35/46/3 36/45/3 28/35/3
f 35/46/7 48/54/7 47/47/7
f 25/41/1 33/73/1 34/48/1
f 43/49/2 44/30/2 42/50/2
f 3/18/10 41/51/10 42/50/10
f 19/28/7 44/30/7 43/49/7
f 18/39/9 43/49/9 41/51/9
f 47/47/2 48/54/2 46/52/2
f 35/46/4 27/37/4 46/52/4
f 26/38/10 45/53/10 46/52/10
f 34/48/9 47/47/9 45/53/9
f 74/55/10 96/70/10 89/56/10
f 52/58/7 98/103/7 103/59/7
f 93/61/11 80/75/11 75/62/11
f 50/64/12 82/89/12 86/65/12
f 95/67/13 76/78/13 77/68/13
f 96/70/14 74/55/14 78/71/14
f 64/15/9 57/3/9 33/73/9
f 39/42/8 63/13/8 64/15/8
f 62/11/6 63/13/6 39/42/6
f 61/9/5 62/11/5 38/43/5
f 60/7/4 61/9/4 37/74/4
f 59/5/3 60/7/3 36/45/3
f 58/2/2 59/5/2 35/46/2
f 57/3/1 58/2/1 34/48/1
f 92/72/15 78/71/15 80/75/15
f 91/69/16 77/68/16 79/76/16
f 94/63/17 75/62/17 76/78/17
f 73/57/10 89/56/10 90/77/10
f 50/64/18 74/55/18 73/57/18
f 53/80/18 76/78/18 75/62/18
f 53/80/18 67/83/18 77/68/18
f 50/64/18 68/66/18 78/71/18
f 49/82/18 79/76/18 77/68/18
f 68/66/18 54/84/18 80/75/18
f 49/82/18 69/79/18 73/57/18
f 72/81/18 75/62/18 80/75/18
f 83/86/18 88/90/18 87/87/18
f 88/90/18 84/91/18 87/87/18
f 84/91/18 86/65/18 87/87/18
f 86/65/18 82/89/18 87/87/18
f 87/87/18 81/88/18 85/85/18
f 72/81/19 88/90/19 83/86/19
f 49/82/7 81/88/7 87/87/7
f 67/83/20 85/85/20 81/88/20
f 53/80/21 83/86/21 85/85/21
f 69/79/7 87/87/7 82/89/7
f 54/84/22 84/91/22 88/90/22
f 68/66/23 86/65/23 84/91/23
f 51/92/24 90/77/24 89/56/24
f 51/92/24 65/96/24 91/69/24
f 66/93/24 92/72/24 93/61/24
f 55/95/24 71/97/24 94/63/24
f 55/95/24 95/67/24 91/69/24
f 52/58/24 96/70/24 92/72/24
f 52/58/24 70/60/24 89/56/24
f 71/97/24 56/94/24 93/61/24
f 97/101/24 103/59/24 101/99/24
f 103/59/24 98/103/24 102/100/24
f 100/102/24 103/59/24 102/100/24
f 100/102/24 104/104/24 103/59/24
f 104/104/24 99/98/24 103/59/24
f 65/96/21 101/99/21 99/98/21
f 56/94/23 100/102/23 102/100/23
f 70/60/7 103/59/7 97/101/7
f 71/97/22 104/104/22 100/102/22
f 66/93/12 102/100/12 98/103/12
f 55/95/19 99/98/19 104/104/19
f 51/92/20 97/101/20 101/99/20
